<svg version="1.1" xmlns="http://www.w3.org/2000/svg" xmlns:xlink="http://www.w3.org/1999/xlink" width="179.60743" height="56.80503" viewBox="0,0,179.60743,56.80503"><g transform="translate(-150.19629,-159.09748)"><g data-paper-data="{&quot;isPaintingLayer&quot;:true}" fill-rule="nonzero" stroke="none" stroke-width="0.5" stroke-linecap="butt" stroke-linejoin="miter" stroke-miterlimit="10" stroke-dasharray="" stroke-dashoffset="0" style="mix-blend-mode: normal"><g><path d="M327.20894,175.8099c6.69876,0 -1.00839,6.89942 -6.93424,10.29961c-1.77104,0.65237 -5.83999,2.69276 -7.42674,2.9253c-5.58369,0.81828 -6.72082,1.18227 -18.97235,1.2989c-15.13515,0.14408 -21.25417,-0.88169 -32.43732,-3.30704c-7.60912,-1.96994 -21.00218,-7.00862 -29.8182,-8.37017c-19.30579,-3.67364 -38.23975,-3.28483 -57.56787,-0.02409c-5.98009,1.00886 -15.78686,4.79095 -20.86998,9.92408c0,0 -1.21757,1.82897 -1.95279,-0.56048c-0.73522,-2.38945 0.79486,-4.21841 0.79486,-4.21841c5.7948,-5.17489 14.98366,-9.02788 21.19848,-10.07591c19.87824,-3.35215 39.38957,-3.74496 59.24578,0.02734c8.71703,1.34491 20.43218,5.69698 29.2853,7.91856c7.82999,1.96483 22.41289,4.16232 33.31221,4.16232c2.52141,0 4.37015,0.03167 5.83591,0.04801c3.8777,0.04325 5.07493,-0.02074 8.95548,-1.0619c7.16879,-2.57752 17.35147,-8.98611 17.35147,-8.98611z" fill="#8873ff"/><path d="M326.3756,174.42101c6.69876,0 -1.00839,6.89942 -6.93424,10.29961c-1.77104,0.65237 -5.83999,2.69276 -7.42674,2.9253c-5.58369,0.81828 -6.72082,1.18227 -18.97235,1.2989c-15.13515,0.14408 -21.25417,-0.88169 -32.43731,-3.30704c-7.60912,-1.96994 -21.00218,-7.00862 -29.8182,-8.37017c-19.30579,-3.67364 -38.23975,-3.28483 -57.56787,-0.02409c-5.98009,1.00886 -15.78686,4.79095 -20.86998,9.92408c0,0 -1.21757,1.82897 -1.95278,-0.56048c-0.73522,-2.38945 0.79486,-4.21841 0.79486,-4.21841c5.7948,-5.17489 14.98366,-9.02788 21.19848,-10.07591c19.87824,-3.35215 39.38957,-3.74496 59.24578,0.02734c8.71703,1.34491 20.43217,5.69698 29.28529,7.91856c7.82999,1.96483 22.41289,4.16232 33.31221,4.16232c9.19191,0 9.44401,0.42084 14.79138,-1.01389c7.16879,-2.57752 17.35147,-8.98611 17.35147,-8.98611z" fill="#73ecff"/></g><g><path d="M327.20893,165.25434c6.69876,0 -1.00839,6.89942 -6.93424,10.29961c-1.77104,0.65237 -5.83999,2.69276 -7.42674,2.9253c-5.58368,0.81828 -6.72082,1.18227 -18.97235,1.2989c-15.13515,0.14408 -21.25417,-0.88169 -32.43732,-3.30704c-7.60911,-1.96994 -21.00218,-7.00862 -29.8182,-8.37017c-19.30579,-3.67364 -38.23975,-3.28483 -57.56787,-0.02409c-5.98009,1.00886 -15.78686,4.79095 -20.86998,9.92408c0,0 -1.21757,1.82897 -1.95279,-0.56048c-0.73522,-2.38945 0.79486,-4.21841 0.79486,-4.21841c5.7948,-5.17489 14.98366,-9.02788 21.19848,-10.07591c19.87824,-3.35215 39.38957,-3.74496 59.24578,0.02734c8.71703,1.34491 20.43218,5.69698 29.2853,7.91856c7.82998,1.96483 22.41289,4.16232 33.31221,4.16232c2.52142,0 4.37015,0.03167 5.83591,0.04801c3.8777,0.04325 5.07493,-0.02074 8.95548,-1.0619c7.16879,-2.57752 17.35147,-8.98611 17.35147,-8.98611z" fill="#8873ff"/><path d="M326.3756,163.86545c6.69876,0 -1.00839,6.89942 -6.93424,10.29961c-1.77104,0.65237 -5.83999,2.69276 -7.42674,2.9253c-5.58368,0.81828 -6.72082,1.18227 -18.97235,1.2989c-15.13515,0.14408 -21.25417,-0.88169 -32.43731,-3.30704c-7.60911,-1.96994 -21.00218,-7.00862 -29.8182,-8.37017c-19.30579,-3.67364 -38.23975,-3.28483 -57.56787,-0.02409c-5.98009,1.00886 -15.78686,4.79095 -20.86998,9.92408c0,0 -1.21757,1.82897 -1.95278,-0.56048c-0.73522,-2.38945 0.79486,-4.21841 0.79486,-4.21841c5.7948,-5.17489 14.98366,-9.02788 21.19848,-10.07591c19.87824,-3.35215 39.38957,-3.74496 59.24578,0.02734c8.71703,1.34491 20.43217,5.69698 29.28529,7.91856c7.82998,1.96483 22.41289,4.16232 33.31221,4.16232c9.19191,0 9.44401,0.42084 14.79138,-1.01389c7.16878,-2.57752 17.35147,-8.98611 17.35147,-8.98611z" fill="#73ecff"/></g><g><path d="M327.20893,201.36545c6.69876,0 -1.00839,6.89942 -6.93424,10.29961c-1.77104,0.65237 -5.83999,2.69276 -7.42674,2.9253c-5.58369,0.81828 -6.72082,1.18227 -18.97235,1.2989c-15.13515,0.14408 -21.25417,-0.88169 -32.43732,-3.30704c-7.60912,-1.96994 -21.00218,-7.00862 -29.8182,-8.37017c-19.30579,-3.67364 -38.23975,-3.28483 -57.56787,-0.02409c-5.98009,1.00886 -15.78686,4.79095 -20.86998,9.92408c0,0 -1.21757,1.82897 -1.95279,-0.56048c-0.73522,-2.38945 0.79486,-4.21841 0.79486,-4.21841c5.7948,-5.17489 14.98366,-9.02788 21.19848,-10.07591c19.87824,-3.35215 39.38957,-3.74496 59.24578,0.02734c8.71703,1.34491 20.43218,5.69698 29.2853,7.91856c7.82999,1.96483 22.41289,4.16232 33.31221,4.16232c2.52141,0 4.37015,0.03167 5.83591,0.04801c3.8777,0.04325 5.07493,-0.02074 8.95548,-1.0619c7.16879,-2.57752 17.35147,-8.98611 17.35147,-8.98611z" fill="#8873ff"/><path d="M326.3756,199.97656c6.69876,0 -1.00839,6.89942 -6.93424,10.29961c-1.77104,0.65237 -5.83999,2.69276 -7.42674,2.9253c-5.58369,0.81828 -6.72082,1.18227 -18.97235,1.2989c-15.13515,0.14408 -21.25417,-0.88169 -32.43731,-3.30704c-7.60911,-1.96994 -21.00218,-7.00862 -29.8182,-8.37017c-19.30579,-3.67364 -38.23975,-3.28483 -57.56787,-0.02409c-5.98009,1.00886 -15.78686,4.79095 -20.86998,9.92408c0,0 -1.21757,1.82897 -1.95278,-0.56048c-0.73522,-2.38945 0.79486,-4.21841 0.79486,-4.21841c5.7948,-5.17489 14.98366,-9.02788 21.19848,-10.07591c19.87824,-3.35215 39.38957,-3.74496 59.24578,0.02734c8.71703,1.34491 20.43217,5.69698 29.28529,7.91856c7.82999,1.96483 22.41289,4.16232 33.31221,4.16232c9.19191,0 9.44401,0.42084 14.79138,-1.01389c7.16879,-2.57752 17.35147,-8.98611 17.35147,-8.98611z" fill="#73ecff"/></g><g><path d="M327.20893,188.58768c6.69876,0 -1.00839,6.89942 -6.93424,10.29961c-1.77104,0.65237 -5.83999,2.69276 -7.42674,2.9253c-5.58369,0.81828 -6.72082,1.18227 -18.97235,1.2989c-15.13515,0.14408 -21.25417,-0.88169 -32.43732,-3.30704c-7.60912,-1.96994 -21.00218,-7.00862 -29.8182,-8.37017c-19.30579,-3.67364 -38.23975,-3.28483 -57.56787,-0.02409c-5.98009,1.00886 -15.78686,4.79095 -20.86998,9.92408c0,0 -1.21757,1.82897 -1.95279,-0.56048c-0.73522,-2.38945 0.79486,-4.21841 0.79486,-4.21841c5.7948,-5.17489 14.98366,-9.02788 21.19848,-10.07591c19.87824,-3.35215 39.38957,-3.74496 59.24578,0.02734c8.71703,1.34491 20.43218,5.69698 29.2853,7.91856c7.82999,1.96483 22.41289,4.16232 33.31221,4.16232c2.52141,0 4.37015,0.03167 5.83591,0.04801c3.8777,0.04325 5.07493,-0.02074 8.95548,-1.0619c7.16879,-2.57752 17.35147,-8.98611 17.35147,-8.98611z" fill="#8873ff"/><path d="M326.3756,187.19879c6.69876,0 -1.00839,6.89942 -6.93424,10.29961c-1.77104,0.65237 -5.83999,2.69276 -7.42674,2.9253c-5.58369,0.81828 -6.72082,1.18227 -18.97235,1.2989c-15.13515,0.14408 -21.25417,-0.88169 -32.43731,-3.30704c-7.60911,-1.96994 -21.00218,-7.00862 -29.8182,-8.37017c-19.30579,-3.67364 -38.23975,-3.28483 -57.56787,-0.02409c-5.98009,1.00886 -15.78686,4.79095 -20.86998,9.92408c0,0 -1.21757,1.82897 -1.95278,-0.56048c-0.73522,-2.38945 0.79486,-4.21841 0.79486,-4.21841c5.7948,-5.17489 14.98366,-9.02788 21.19848,-10.07591c19.87824,-3.35215 39.38957,-3.74496 59.24578,0.02734c8.71703,1.34491 20.43217,5.69698 29.28529,7.91856c7.82999,1.96483 22.41289,4.16232 33.31221,4.16232c9.19191,0 9.44401,0.42084 14.79138,-1.01389c7.16879,-2.57752 17.35147,-8.98611 17.35147,-8.98611z" fill="#73ecff"/></g></g></g></svg>